<svg width="23" height="23" viewBox="0 0 23 23" fill="none" xmlns="http://www.w3.org/2000/svg">
<g opacity="0.6">
<path opacity="0.5" fill-rule="evenodd" clip-rule="evenodd" d="M8.142 19.2021C5.71933 17.3957 2.875 15.273 2.875 11.5949C2.875 7.53441 7.61875 4.65462 11.5 8.55887C15.3813 4.65462 20.125 7.53441 20.125 11.5949C20.125 15.2739 17.2807 17.3957 14.858 19.2021C14.6069 19.39 14.3597 19.574 14.1201 19.756C13.225 20.4393 12.3625 21.0833 11.5 21.0833C10.6375 21.0833 9.775 20.4393 8.87992 19.756C8.64033 19.574 8.39308 19.39 8.142 19.2021Z" fill="#A38181"/>
<path d="M11.5 10.7812C11.6907 10.7812 11.8735 10.857 12.0083 10.9918C12.1431 11.1265 12.2188 11.3094 12.2188 11.5V13.8958C12.2188 14.0864 12.1431 14.2693 12.0083 14.4041C11.8735 14.5388 11.6907 14.6146 11.5 14.6146C11.3094 14.6146 11.1266 14.5388 10.9918 14.4041C10.857 14.2693 10.7813 14.0864 10.7813 13.8958V11.5C10.7813 11.3094 10.857 11.1265 10.9918 10.9918C11.1266 10.857 11.3094 10.7812 11.5 10.7812ZM7.42712 6.70832C7.42712 5.26603 7.8555 4.27512 8.51867 3.64166C9.18662 3.00149 10.1862 2.63541 11.5 2.63541C12.813 2.63541 13.8135 3.00149 14.4814 3.64166C15.1446 4.27512 15.573 5.26603 15.573 6.70832C16.0641 6.72005 16.5499 6.81428 17.0105 6.98528V6.70832C17.0105 4.9747 16.4872 3.56978 15.4752 2.60186C14.469 1.6397 13.0736 1.19791 11.5 1.19791C9.92646 1.19791 8.53112 1.6397 7.52487 2.60186C6.51287 3.56978 5.98962 4.9747 5.98962 6.70832V6.98624C6.45008 6.81459 6.93587 6.72067 7.42712 6.70832Z" fill="#A38181"/>
</g>
</svg>
