<svg width="14" height="14" viewBox="0 0 14 14" fill="none" xmlns="http://www.w3.org/2000/svg">
<path d="M9.2143 5.7143L7.92969 7L9.21594 8.2857C9.33922 8.40899 9.40848 8.5762 9.40848 8.75055C9.40848 8.9249 9.33922 9.09211 9.21594 9.21539C9.09266 9.33867 8.92545 9.40794 8.7511 9.40794C8.57675 9.40794 8.40954 9.33867 8.28625 9.21539L7 7.92969L5.7143 9.21594C5.59101 9.33922 5.42381 9.40848 5.24946 9.40848C5.07511 9.40848 4.9079 9.33922 4.78461 9.21594C4.66133 9.09265 4.59207 8.92544 4.59207 8.75109C4.59207 8.57674 4.66133 8.40953 4.78461 8.28625L6.07031 7L4.78571 5.7143C4.72466 5.65325 4.67624 5.58078 4.6432 5.50102C4.61016 5.42127 4.59316 5.33578 4.59316 5.24945C4.59316 5.0751 4.66242 4.90789 4.78571 4.78461C4.90899 4.66132 5.0762 4.59206 5.25055 4.59206C5.4249 4.59206 5.59211 4.66132 5.71539 4.78461L7 6.07031L8.28571 4.78406C8.40899 4.66078 8.5762 4.59152 8.75055 4.59152C8.9249 4.59152 9.09211 4.66078 9.21539 4.78406C9.33868 4.90735 9.40794 5.07456 9.40794 5.24891C9.40794 5.42326 9.33868 5.59047 9.21539 5.71375L9.2143 5.7143ZM12.9063 7C12.9063 8.16815 12.5599 9.31006 11.9109 10.2813C11.2619 11.2526 10.3395 12.0096 9.26023 12.4567C8.181 12.9037 6.99345 13.0207 5.84775 12.7928C4.70205 12.5649 3.64966 12.0024 2.82365 11.1763C1.99765 10.3503 1.43513 9.29795 1.20724 8.15225C0.979346 7.00655 1.09631 5.819 1.54334 4.73978C1.99037 3.66055 2.74739 2.73812 3.71867 2.08913C4.68994 1.44015 5.83186 1.09375 7 1.09375C8.5659 1.09549 10.0672 1.71831 11.1744 2.82557C12.2817 3.93283 12.9045 5.4341 12.9063 7ZM11.5938 7C11.5938 6.09144 11.3243 5.20329 10.8196 4.44785C10.3148 3.69241 9.59735 3.10362 8.75795 2.75593C7.91856 2.40824 6.99491 2.31727 6.10381 2.49452C5.21271 2.67177 4.39418 3.10928 3.75173 3.75173C3.10928 4.39418 2.67177 5.2127 2.49452 6.1038C2.31727 6.9949 2.40824 7.91855 2.75593 8.75795C3.10362 9.59735 3.69241 10.3148 4.44785 10.8196C5.20329 11.3243 6.09144 11.5938 7 11.5938C8.21794 11.5924 9.38562 11.108 10.2468 10.2468C11.108 9.38562 11.5924 8.21794 11.5938 7Z" fill="#EF0C0C"/>
</svg>
